<svg width="36" height="33" viewBox="0 0 36 33" fill="none" xmlns="http://www.w3.org/2000/svg">
<path d="M33.035 24.9851C29.192 22.3731 18.046 27.9051 17.998 27.9291C17.951 27.9051 6.805 22.3731 2.961 24.9851C-0.0209961 27.0121 4.05101e-06 32.9301 4.05101e-06 32.9301H35.996C35.996 32.9301 36.017 27.0121 33.035 24.9851V24.9851Z" fill="#A0041E"/>
<path d="M32 25.9301C29.845 24.8451 28 25.9301 28 25.9301L18 24.9301L8 25.9301C8 25.9301 6.155 24.8451 4 25.9301C0.0050025 27.9411 2 32.9301 2 32.9301H34C34 32.9301 35.995 27.9411 32 25.9301Z" fill="#55ACEE"/>
<path d="M24.056 32.9301C22.845 31.7361 20.59 30.9301 18 30.9301C15.41 30.9301 13.155 31.7361 11.944 32.9301H24.056V32.9301Z" fill="#DD2E44"/>
<path d="M13.64 25.4671C15.384 26.7351 16.487 27.4301 18 27.4301C19.512 27.4301 20.615 26.7341 22.359 25.4671V21.2201H13.639V25.4671H13.64Z" fill="#F7DECE"/>
<path d="M30.453 23.9301C28.5 23.6641 26.859 24.4771 26.859 24.4771C26.859 24.4771 26.014 23.8831 25.014 23.8631C23.545 23.8331 22.572 24.7981 22 25.6181C21.281 26.6491 19 26.9301 18 26.9301C17 26.9301 14.719 26.6491 14 25.6181C13.428 24.7981 12.455 23.8341 10.986 23.8631C9.986 23.8831 9.141 24.4771 9.141 24.4771C9.141 24.4771 7.5 23.6641 5.547 23.9301C4.242 24.1071 3.19 24.6941 2.701 25.1781C5.531 23.4931 7.458 24.9491 8.766 25.8211C10.074 26.6931 11 28.9301 11 28.9301C13 27.9301 18 27.9301 18 27.9301C18 27.9301 23 27.9301 25 28.9301C25 28.9301 25.926 26.6931 27.234 25.8211C28.542 24.9491 30.468 23.4931 33.299 25.1781C32.81 24.6941 31.758 24.1071 30.453 23.9301V23.9301Z" fill="#DD2E44"/>
<path d="M13.632 22.4301C14 24.4571 16.356 24.6491 17.996 24.6491C19.635 24.6491 22 24.4581 22.359 22.4301V19.4111H13.631V22.4301H13.632Z" fill="#EEC2AD"/>
<path d="M11.444 12.8661C11.444 14.3141 10.71 15.4881 9.805 15.4881C8.9 15.4881 8.166 14.3141 8.166 12.8661C8.166 11.4181 8.9 10.2431 9.805 10.2431C10.71 10.2421 11.444 11.4171 11.444 12.8661ZM27.833 12.8661C27.833 14.3141 27.1 15.4881 26.194 15.4881C25.289 15.4881 24.555 14.3141 24.555 12.8661C24.555 11.4181 25.288 10.2431 26.194 10.2431C27.1 10.2421 27.833 11.4171 27.833 12.8661Z" fill="#F7DECE"/>
<path d="M18 3.93013C13 3.93013 10 5.93013 10 8.93013C10 11.9301 10 17.9301 12 20.9301C14 23.9301 16 23.9301 18 23.9301C20 23.9301 22 23.9301 24 20.9301C26 17.9301 26 11.9301 26 8.93013C26 5.93013 23 3.93013 18 3.93013Z" fill="#F7DECE"/>
<path d="M18.821 0.0481321C24.825 0.538132 27.177 4.29413 27.177 7.89913C27.177 11.5031 26.471 12.9461 25.765 11.5031C25.059 10.0621 24.409 8.13513 24.409 8.13513C24.409 8.13513 20.117 8.62013 18.705 7.17813C18.705 7.17813 20.823 11.5041 16.587 7.17813C16.587 7.17813 17.293 10.0621 13.057 6.45813C13.057 6.45813 10.939 7.90013 10.233 11.5041C10.037 12.5051 8.821 11.5041 8.821 7.90013C8.822 5.22313 9 1.24813 13.729 1.73013C14.757 0.0911322 16.747 -0.120868 18.821 0.0481321V0.0481321Z" fill="#292F33"/>
<path d="M25 8.93013C22 8.93013 20 9.93013 18 9.93013C16 9.93013 14 8.93013 11 8.93013C8 8.93013 10 14.6501 11 15.6501C12 16.6501 16 14.6501 18 14.6501C20 14.6501 24 16.6501 25 15.6501C26 14.6501 28 8.93013 25 8.93013Z" fill="#226699"/>
<path d="M14 13.9301C13.45 13.9301 13 13.4801 13 12.9301V11.9301C13 11.3801 13.45 10.9301 14 10.9301C14.55 10.9301 15 11.3801 15 11.9301V12.9301C15 13.4801 14.55 13.9301 14 13.9301ZM22 13.9301C21.45 13.9301 21 13.4801 21 12.9301V11.9301C21 11.3801 21.45 10.9301 22 10.9301C22.55 10.9301 23 11.3801 23 11.9301V12.9301C23 13.4801 22.55 13.9301 22 13.9301Z" fill="#88C9F9"/>
<path d="M18.75 16.6801H17.25C16.837 16.6801 16.5 16.3431 16.5 15.9301C16.5 15.5171 16.837 15.1801 17.25 15.1801H18.75C19.163 15.1801 19.5 15.5171 19.5 15.9301C19.5 16.3431 19.163 16.6801 18.75 16.6801ZM18 20.1801C15.942 20.1801 14.406 19.6761 14.342 19.6551C14.08 19.5671 13.939 19.2851 14.026 19.0231C14.112 18.7611 14.392 18.6161 14.658 18.7061C14.672 18.7101 16.113 19.1801 18 19.1801C19.887 19.1801 21.328 18.7101 21.343 18.7051C21.6 18.6181 21.887 18.7601 21.975 19.0221C22.062 19.2841 21.92 19.5661 21.659 19.6541C21.594 19.6761 20.058 20.1801 18 20.1801V20.1801Z" fill="#C1694F"/>
</svg>
