<svg width="36" height="35" viewBox="0 0 36 35" fill="none" xmlns="http://www.w3.org/2000/svg">
<path d="M35.002 35V33C35.002 29.686 32.316 27 29.002 27H15.002C11.689 27 9.002 29.686 9.002 33V35H35.002Z" fill="#FA743E"/>
<path d="M25.906 1.262C23.886 0.609 19.134 0.787 17.946 2.331C14.857 2.39 11.233 5.182 10.758 8.866C10.288 12.511 11.336 14.204 11.709 16.945C12.131 20.051 13.877 21.044 15.273 21.46C17.281 24.114 19.416 24 23 24C30 24 33.334 19.316 33.629 11.361C33.807 6.549 30.984 2.905 25.906 1.262V1.262Z" fill="#292F33"/>
<path d="M19 22V28C19 29.657 20.343 31 22 31C23.657 31 25 29.657 25 28V22H19Z" fill="#F7DECE"/>
<path d="M18.519 24.995C19.577 26.202 20.568 26.505 21.996 26.505C23.422 26.505 24.422 26.201 25.481 24.995V21.48H18.52V24.995H18.519Z" fill="#EEC2AD"/>
<path d="M29.909 11.701C29.232 10.763 28.364 10.008 26.463 9.741C27.176 10.068 27.859 11.196 27.948 11.82C28.037 12.444 28.126 12.949 27.562 12.325C25.301 9.826 22.839 10.81 20.399 9.284C18.695 8.218 18.176 7.038 18.176 7.038C18.176 7.038 17.968 8.612 15.384 10.216C14.635 10.681 13.741 11.716 13.245 13.246C12.889 14.345 13 15.325 13 17C13 21.889 17.029 26 22 26C26.971 26 31 21.853 31 17C31 13.959 30.681 12.771 29.909 11.701Z" fill="#F7DECE"/>
<path d="M22.002 22.802C19.248 22.802 18.402 22.097 18.261 21.954C18.005 21.698 18.005 21.283 18.261 21.027C18.509 20.779 18.907 20.772 19.163 21.004C19.215 21.041 19.884 21.491 22.002 21.491C24.202 21.491 24.838 21.006 24.844 21.001C25.1 20.746 25.501 20.758 25.757 21.016C26.013 21.272 25.999 21.699 25.743 21.954C25.602 22.097 24.756 22.802 22.002 22.802Z" fill="#C1694F"/>
<path d="M18 16C17.448 16 17 15.552 17 15V14C17 13.448 17.448 13 18 13C18.552 13 19 13.448 19 14V15C19 15.552 18.552 16 18 16ZM26 16C25.448 16 25 15.552 25 15V14C25 13.448 25.448 13 26 13C26.552 13 27 13.448 27 14V15C27 15.552 26.552 16 26 16Z" fill="#662113"/>
<path d="M23 19.5H21C20.724 19.5 20.5 19.276 20.5 19C20.5 18.724 20.724 18.5 21 18.5H23C23.276 18.5 23.5 18.724 23.5 19C23.5 19.276 23.276 19.5 23 19.5Z" fill="#C1694F"/>
<path d="M8.002 27.558V35H9.002L9.305 27.558H8.002Z" fill="#DD551F"/>
<path d="M4.335 27.053L3.002 35H8.002L8.723 27.412L4.335 27.053Z" fill="#FA743E"/>
<path d="M6.789 21.258C7.712 20.335 10.347 18.294 11.004 17.621C11.662 16.949 12.534 17.718 12.072 18.539C11.61 19.36 8.943 22.386 8.943 22.386C8.943 22.386 10.533 22.848 10.892 23.258C11.251 23.668 11.918 26.336 11.302 26.746C10.686 27.156 9.763 26.849 9.763 26.849C9.763 26.849 8.79 29.26 6.276 29.106C5.232 29.042 4.173 28.131 4.275 26.592C4.378 25.053 5.179 23.623 5.455 22.796C5.763 21.873 6.789 21.258 6.789 21.258V21.258Z" fill="#F7DECE"/>
<path d="M6.103 19.705C6.055 19.705 6.006 19.698 5.957 19.684C3.528 18.944 3.098 16.12 3.081 16C3.042 15.727 3.231 15.475 3.504 15.435C3.776 15.397 4.03 15.584 4.07 15.857C4.073 15.88 4.432 18.173 6.248 18.726C6.512 18.807 6.661 19.086 6.581 19.35C6.515 19.566 6.317 19.705 6.103 19.705V19.705ZM5.026 21.717C4.977 21.717 4.927 21.71 4.878 21.695C1.321 20.593 0.366 16.586 0.327 16.416C0.265 16.147 0.433 15.879 0.702 15.817C0.973 15.755 1.239 15.923 1.302 16.192C1.31 16.228 2.174 19.81 5.175 20.74C5.439 20.822 5.586 21.101 5.505 21.365C5.438 21.579 5.24 21.717 5.026 21.717V21.717Z" fill="#5DADEC"/>
</svg>
