<svg width="30" height="36" viewBox="0 0 30 36" fill="none" xmlns="http://www.w3.org/2000/svg">
<path d="M19.854 0.456488C17.276 -0.377512 11.208 -0.150512 9.69104 1.82149C5.74704 1.89749 1.12104 5.46149 0.514042 10.1645C-0.0859582 14.8185 1.25204 16.9795 1.72804 20.4795C2.26704 24.4445 4.49604 25.7125 6.27904 26.2435C8.84304 29.6305 11.569 29.4855 16.145 29.4855C25.082 29.4855 29.338 23.5055 29.714 13.3495C29.941 7.20649 26.337 2.55449 19.854 0.456488V0.456488Z" fill="#292F33"/>
<path d="M24.9651 13.7835C24.1001 12.5865 22.9931 11.6225 20.5661 11.2805C21.4761 11.6975 22.3481 13.1385 22.4621 13.9345C22.5761 14.7305 22.6901 15.3755 21.9691 14.5795C19.0831 11.3895 15.9391 12.6455 12.8241 10.6965C10.6481 9.3355 9.98609 7.8295 9.98609 7.8295C9.98609 7.8295 9.72109 9.8395 6.42109 11.8875C5.46509 12.4815 4.32409 13.8035 3.69109 15.7555C3.23609 17.1585 3.37709 18.4105 3.37709 20.5485C3.37709 26.7905 8.52109 32.0385 14.8671 32.0385C21.2131 32.0385 26.3571 26.7445 26.3571 20.5485C26.3581 16.6655 25.9511 15.1495 24.9651 13.7835V13.7835Z" fill="#F7DECE"/>
<path d="M24.2432 23.9935C23.2012 25.0935 21.1182 27.2935 19.0352 26.1935C16.0892 24.6375 14.8682 25.0935 14.8682 25.0935C14.8682 25.0935 13.6472 24.6385 10.7012 26.1935C8.61816 27.2935 6.53416 25.0935 5.49316 23.9935C4.75616 23.2155 2.36816 21.7935 2.36816 23.9935C2.36816 27.2935 4.45116 29.4935 4.45116 29.4935C6.53416 34.9935 10.7012 34.9935 10.7012 34.9935C11.7432 36.0935 17.9932 36.0935 19.0342 34.9935C19.0342 34.9935 23.2012 34.9935 25.2842 29.4935C25.2842 29.4935 27.3672 27.2935 27.3672 23.9935C27.3682 21.7935 24.9792 23.2165 24.2432 23.9935V23.9935Z" fill="#292F33"/>
<path d="M14.8679 29.4945C10.7009 29.4945 7.57593 27.2945 14.8679 27.2945C22.1599 27.2945 19.0349 29.4945 14.8679 29.4945Z" fill="#F7DECE"/>
<path d="M16.1441 23.7405H13.5911C13.2381 23.7405 12.9531 23.4555 12.9531 23.1025C12.9531 22.7495 13.2381 22.4645 13.5911 22.4645H16.1441C16.4971 22.4645 16.7821 22.7495 16.7821 23.1025C16.7821 23.4555 16.4971 23.7405 16.1441 23.7405Z" fill="#C1694F"/>
<path d="M9.76113 19.2725C9.05613 19.2725 8.48413 18.7005 8.48413 17.9955V16.7185C8.48413 16.0135 9.05613 15.4415 9.76113 15.4415C10.4661 15.4415 11.0381 16.0135 11.0381 16.7185V17.9955C11.0381 18.7005 10.4661 19.2725 9.76113 19.2725ZM19.9741 19.2725C19.2691 19.2725 18.6971 18.7005 18.6971 17.9955V16.7185C18.6971 16.0135 19.2691 15.4415 19.9741 15.4415C20.6791 15.4415 21.2511 16.0135 21.2511 16.7185V17.9955C21.2511 18.7005 20.6791 19.2725 19.9741 19.2725Z" fill="#662113"/>
</svg>
